<mxfile host="" modified="2020-09-19T20:42:40.891Z" agent="5.0 (Macintosh; Intel Mac OS X 10_15_6) AppleWebKit/537.36 (KHTML, like Gecko) Code/1.45.1 Chrome/78.0.3904.130 Electron/7.2.4 Safari/537.36" etag="GMnsVc6yWm5u7LrfhdrW" version="13.1.3">
    <diagram id="6hGFLwfOUW9BJ-s0fimq" name="Page-1">
        <mxGraphModel dx="312" dy="410" grid="1" gridSize="10" guides="1" tooltips="1" connect="1" arrows="1" fold="1" page="1" pageScale="1" pageWidth="827" pageHeight="1169" math="0" shadow="0">
            <root>
                <mxCell id="0"/>
                <mxCell id="1" parent="0"/>
                <mxCell id="2" value="" style="edgeStyle=orthogonalEdgeStyle;fontSize=12;html=1;endArrow=ERzeroToMany;endFill=1;startArrow=ERzeroToMany;entryX=0;entryY=0.5;entryDx=0;entryDy=0;exitX=0.75;exitY=0;exitDx=0;exitDy=0;" edge="1" parent="1" source="12" target="11">
                    <mxGeometry width="100" height="100" relative="1" as="geometry">
                        <mxPoint x="268" y="432" as="sourcePoint"/>
                        <mxPoint x="368" y="332" as="targetPoint"/>
                    </mxGeometry>
                </mxCell>
                <mxCell id="3" value="Movies" style="swimlane;fontStyle=0;childLayout=stackLayout;horizontal=1;startSize=26;horizontalStack=0;resizeParent=1;resizeParentMax=0;resizeLast=0;collapsible=1;marginBottom=0;align=center;fontSize=14;" vertex="1" parent="1">
                    <mxGeometry x="338" y="82" width="360" height="266" as="geometry"/>
                </mxCell>
                <mxCell id="4" value="name {type: String, required: true}" style="text;strokeColor=none;fillColor=none;spacingLeft=4;spacingRight=4;overflow=hidden;rotatable=0;points=[[0,0.5],[1,0.5]];portConstraint=eastwest;fontSize=12;" vertex="1" parent="3">
                    <mxGeometry y="26" width="360" height="30" as="geometry"/>
                </mxCell>
                <mxCell id="5" value="director {type: String, required: true}" style="text;strokeColor=none;fillColor=none;spacingLeft=4;spacingRight=4;overflow=hidden;rotatable=0;points=[[0,0.5],[1,0.5]];portConstraint=eastwest;fontSize=12;" vertex="1" parent="3">
                    <mxGeometry y="56" width="360" height="30" as="geometry"/>
                </mxCell>
                <mxCell id="6" value="actors {type: Array[String], required: true}" style="text;strokeColor=none;fillColor=none;spacingLeft=4;spacingRight=4;overflow=hidden;rotatable=0;points=[[0,0.5],[1,0.5]];portConstraint=eastwest;fontSize=12;" vertex="1" parent="3">
                    <mxGeometry y="86" width="360" height="30" as="geometry"/>
                </mxCell>
                <mxCell id="7" value="genre {type: String, required: true}" style="text;strokeColor=none;fillColor=none;spacingLeft=4;spacingRight=4;overflow=hidden;rotatable=0;points=[[0,0.5],[1,0.5]];portConstraint=eastwest;fontSize=12;" vertex="1" parent="3">
                    <mxGeometry y="116" width="360" height="30" as="geometry"/>
                </mxCell>
                <mxCell id="8" value="yearReleased {type: String, required: true}" style="text;strokeColor=none;fillColor=none;spacingLeft=4;spacingRight=4;overflow=hidden;rotatable=0;points=[[0,0.5],[1,0.5]];portConstraint=eastwest;fontSize=12;" vertex="1" parent="3">
                    <mxGeometry y="146" width="360" height="30" as="geometry"/>
                </mxCell>
                <mxCell id="9" value="plotSummary {type: String, required: true}" style="text;strokeColor=none;fillColor=none;spacingLeft=4;spacingRight=4;overflow=hidden;rotatable=0;points=[[0,0.5],[1,0.5]];portConstraint=eastwest;fontSize=12;" vertex="1" parent="3">
                    <mxGeometry y="176" width="360" height="30" as="geometry"/>
                </mxCell>
                <mxCell id="10" value="images {type: Array[String], required: true}" style="text;strokeColor=none;fillColor=none;spacingLeft=4;spacingRight=4;overflow=hidden;rotatable=0;points=[[0,0.5],[1,0.5]];portConstraint=eastwest;fontSize=12;" vertex="1" parent="3">
                    <mxGeometry y="206" width="360" height="30" as="geometry"/>
                </mxCell>
                <mxCell id="11" value="theatres {type: Array[String], ref Theatres}" style="text;strokeColor=none;fillColor=none;spacingLeft=4;spacingRight=4;overflow=hidden;rotatable=0;points=[[0,0.5],[1,0.5]];portConstraint=eastwest;fontSize=12;" vertex="1" parent="3">
                    <mxGeometry y="236" width="360" height="30" as="geometry"/>
                </mxCell>
                <mxCell id="12" value="Theatres" style="swimlane;fontStyle=0;childLayout=stackLayout;horizontal=1;startSize=26;horizontalStack=0;resizeParent=1;resizeParentMax=0;resizeLast=0;collapsible=1;marginBottom=0;align=center;fontSize=14;" vertex="1" parent="1">
                    <mxGeometry x="48" y="412" width="260" height="150" as="geometry"/>
                </mxCell>
                <mxCell id="13" value="name {type: String, required: true}" style="text;strokeColor=none;fillColor=none;spacingLeft=4;spacingRight=4;overflow=hidden;rotatable=0;points=[[0,0.5],[1,0.5]];portConstraint=eastwest;fontSize=12;" vertex="1" parent="12">
                    <mxGeometry y="26" width="260" height="30" as="geometry"/>
                </mxCell>
                <mxCell id="14" value="location: {type: String, required: true}" style="text;strokeColor=none;fillColor=none;spacingLeft=4;spacingRight=4;overflow=hidden;rotatable=0;points=[[0,0.5],[1,0.5]];portConstraint=eastwest;fontSize=12;" vertex="1" parent="12">
                    <mxGeometry y="56" width="260" height="30" as="geometry"/>
                </mxCell>
                <mxCell id="15" value="image {type: String, required: true}" style="text;strokeColor=none;fillColor=none;spacingLeft=4;spacingRight=4;overflow=hidden;rotatable=0;points=[[0,0.5],[1,0.5]];portConstraint=eastwest;fontSize=12;" vertex="1" parent="12">
                    <mxGeometry y="86" width="260" height="30" as="geometry"/>
                </mxCell>
                <mxCell id="16" value="shovings: {type: Array[ref Showings]}" style="text;strokeColor=none;fillColor=none;spacingLeft=4;spacingRight=4;overflow=hidden;rotatable=0;points=[[0,0.5],[1,0.5]];portConstraint=eastwest;fontSize=12;" vertex="1" parent="12">
                    <mxGeometry y="116" width="260" height="34" as="geometry"/>
                </mxCell>
                <mxCell id="17" value="" style="fontSize=12;html=1;endArrow=ERzeroToMany;endFill=1;shadow=1;entryX=0;entryY=0.5;entryDx=0;entryDy=0;" edge="1" parent="1">
                    <mxGeometry width="100" height="100" relative="1" as="geometry">
                        <mxPoint x="308" y="539" as="sourcePoint"/>
                        <mxPoint x="448.0000000000002" y="539" as="targetPoint"/>
                    </mxGeometry>
                </mxCell>
                <mxCell id="18" value="" style="fontSize=12;html=1;endArrow=ERzeroToMany;endFill=1;shadow=1;entryX=0.5;entryY=0;entryDx=0;entryDy=0;" edge="1" parent="1" target="19">
                    <mxGeometry width="100" height="100" relative="1" as="geometry">
                        <mxPoint x="554" y="347" as="sourcePoint"/>
                        <mxPoint x="398" y="442" as="targetPoint"/>
                    </mxGeometry>
                </mxCell>
                <mxCell id="19" value="Showings" style="swimlane;fontStyle=0;childLayout=stackLayout;horizontal=1;startSize=26;horizontalStack=0;resizeParent=1;resizeParentMax=0;resizeLast=0;collapsible=1;marginBottom=0;align=center;fontSize=14;" vertex="1" parent="1">
                    <mxGeometry x="448" y="472" width="212" height="176" as="geometry"/>
                </mxCell>
                <mxCell id="20" value="theatre {ref Theatre}" style="text;strokeColor=none;fillColor=none;spacingLeft=4;spacingRight=4;overflow=hidden;rotatable=0;points=[[0,0.5],[1,0.5]];portConstraint=eastwest;fontSize=12;" vertex="1" parent="19">
                    <mxGeometry y="26" width="212" height="30" as="geometry"/>
                </mxCell>
                <mxCell id="21" value="movie {ref Movie}" style="text;strokeColor=none;fillColor=none;spacingLeft=4;spacingRight=4;overflow=hidden;rotatable=0;points=[[0,0.5],[1,0.5]];portConstraint=eastwest;fontSize=12;" vertex="1" parent="19">
                    <mxGeometry y="56" width="212" height="30" as="geometry"/>
                </mxCell>
                <mxCell id="22" value="time {type: String}" style="text;strokeColor=none;fillColor=none;spacingLeft=4;spacingRight=4;overflow=hidden;rotatable=0;points=[[0,0.5],[1,0.5]];portConstraint=eastwest;fontSize=12;" vertex="1" parent="19">
                    <mxGeometry y="86" width="212" height="30" as="geometry"/>
                </mxCell>
                <mxCell id="23" value="price {type: Number}" style="text;strokeColor=none;fillColor=none;spacingLeft=4;spacingRight=4;overflow=hidden;rotatable=0;points=[[0,0.5],[1,0.5]];portConstraint=eastwest;fontSize=12;" vertex="1" parent="19">
                    <mxGeometry y="116" width="212" height="30" as="geometry"/>
                </mxCell>
                <mxCell id="24" value="playing {type: Boolean}" style="text;strokeColor=none;fillColor=none;spacingLeft=4;spacingRight=4;overflow=hidden;rotatable=0;points=[[0,0.5],[1,0.5]];portConstraint=eastwest;fontSize=12;" vertex="1" parent="19">
                    <mxGeometry y="146" width="212" height="30" as="geometry"/>
                </mxCell>
                <mxCell id="25" value="" style="fontSize=12;html=1;endArrow=ERzeroToMany;endFill=1;shadow=1;exitX=0;exitY=0.5;exitDx=0;exitDy=0;entryX=1;entryY=0.5;entryDx=0;entryDy=0;" edge="1" parent="1" source="32" target="22">
                    <mxGeometry width="100" height="100" relative="1" as="geometry">
                        <mxPoint x="478" y="482" as="sourcePoint"/>
                        <mxPoint x="578" y="382" as="targetPoint"/>
                    </mxGeometry>
                </mxCell>
                <mxCell id="26" value="Users" style="swimlane;fontStyle=0;childLayout=stackLayout;horizontal=1;startSize=26;horizontalStack=0;resizeParent=1;resizeParentMax=0;resizeLast=0;collapsible=1;marginBottom=0;align=center;fontSize=14;" vertex="1" parent="1">
                    <mxGeometry x="730" y="348" width="220" height="264" as="geometry"/>
                </mxCell>
                <mxCell id="27" value="name {type: String, required : true}" style="text;strokeColor=none;fillColor=none;spacingLeft=4;spacingRight=4;overflow=hidden;rotatable=0;points=[[0,0.5],[1,0.5]];portConstraint=eastwest;fontSize=12;" vertex="1" parent="26">
                    <mxGeometry y="26" width="220" height="30" as="geometry"/>
                </mxCell>
                <mxCell id="28" value="email {type: String, required : true}" style="text;strokeColor=none;fillColor=none;spacingLeft=4;spacingRight=4;overflow=hidden;rotatable=0;points=[[0,0.5],[1,0.5]];portConstraint=eastwest;fontSize=12;" vertex="1" parent="26">
                    <mxGeometry y="56" width="220" height="30" as="geometry"/>
                </mxCell>
                <mxCell id="29" value="password {type: String, required : true}" style="text;strokeColor=none;fillColor=none;spacingLeft=4;spacingRight=4;overflow=hidden;rotatable=0;points=[[0,0.5],[1,0.5]];portConstraint=eastwest;fontSize=12;" vertex="1" parent="26">
                    <mxGeometry y="86" width="220" height="30" as="geometry"/>
                </mxCell>
                <mxCell id="30" value="location {type: String}" style="text;strokeColor=none;fillColor=none;spacingLeft=4;spacingRight=4;overflow=hidden;rotatable=0;points=[[0,0.5],[1,0.5]];portConstraint=eastwest;fontSize=12;" vertex="1" parent="26">
                    <mxGeometry y="116" width="220" height="34" as="geometry"/>
                </mxCell>
                <mxCell id="31" value="isAdmin {type: Boolean, default: false}" style="text;strokeColor=none;fillColor=none;spacingLeft=4;spacingRight=4;overflow=hidden;rotatable=0;points=[[0,0.5],[1,0.5]];portConstraint=eastwest;fontSize=12;" vertex="1" parent="26">
                    <mxGeometry y="150" width="220" height="34" as="geometry"/>
                </mxCell>
                <mxCell id="32" value="purchases {type: Array[{&#10;     tickets: type Number&#10;     cost: type Number&#10;     showing: ref Showings}]}" style="text;strokeColor=none;fillColor=none;spacingLeft=4;spacingRight=4;overflow=hidden;rotatable=0;points=[[0,0.5],[1,0.5]];portConstraint=eastwest;fontSize=12;" vertex="1" parent="26">
                    <mxGeometry y="184" width="220" height="80" as="geometry"/>
                </mxCell>
            </root>
        </mxGraphModel>
    </diagram>
</mxfile>